<?xml version="1.0" encoding="utf-8"?>
<!-- Generator: Adobe Illustrator 19.0.1, SVG Export Plug-In . SVG Version: 6.00 Build 0)  -->
<svg version="1.1" id="Layer_1" xmlns="http://www.w3.org/2000/svg" xmlns:xlink="http://www.w3.org/1999/xlink" x="0px" y="0px"
	 viewBox="0 0 164.3 252.8" style="enable-background:new 0 0 164.3 252.8;" xml:space="preserve">
<style type="text/css">
	.st0{fill:#231F20;}
	.st1{fill:#F2BD1A;}
	.st2{fill:#40BEB0;}
	.st3{fill:#37A595;}
</style>
<g>
	<g>
		<g>
			<path class="st0" d="M12.2,243.2v-29.1h3v29.1H12.2z"/>
			<path class="st0" d="M20.4,233c0-3.7,0.7-6.4,2-8c1.3-1.6,3.6-2.5,6.7-2.5c3.2,0,5.4,0.8,6.7,2.5c1.3,1.7,2,4.3,2,8
				c0,3.7-0.6,6.4-1.9,8.1c-1.2,1.7-3.5,2.5-6.8,2.5c-3.3,0-5.6-0.8-6.8-2.5C21.1,239.4,20.4,236.7,20.4,233z M23.6,233
				c0,3,0.4,5,1.1,6.2c0.7,1.2,2.2,1.8,4.5,1.8c2.3,0,3.8-0.6,4.5-1.8c0.7-1.2,1.1-3.3,1.1-6.2c0-3-0.4-5-1.2-6.1
				c-0.8-1.1-2.2-1.7-4.4-1.7c-2.1,0-3.6,0.6-4.4,1.7C24,228,23.6,230,23.6,233z"/>
			<path class="st0" d="M50.6,252.8c-3.2,0-5.5-0.4-6.8-1.3c-1.3-0.9-1.9-2.5-1.9-4.8c0-1.1,0.2-2,0.7-2.7c0.5-0.7,1.3-1.5,2.5-2.3
				c-0.8-0.5-1.1-1.4-1.1-2.8c0-0.5,0.3-1.3,1-2.6l0.4-0.6c-2.1-1-3.2-3-3.2-6.1c0-4.6,2.5-6.9,7.6-6.9c1.3,0,2.5,0.1,3.6,0.4
				l0.6,0.1l6-0.2v2.6l-3.9-0.1c0.9,0.9,1.3,2.2,1.3,4.1c0,2.5-0.6,4.3-1.9,5.3c-1.3,1-3.2,1.5-5.9,1.5c-0.7,0-1.4-0.1-2-0.2
				c-0.5,1.2-0.7,2-0.7,2.3c0,0.8,0.3,1.4,0.8,1.6c0.5,0.2,2.1,0.3,4.7,0.3c2.6,0,4.5,0.4,5.6,1.2c1.1,0.8,1.7,2.4,1.7,4.7
				C59.6,250.6,56.6,252.8,50.6,252.8z M44.9,246.4c0,1.4,0.4,2.4,1.2,3c0.8,0.6,2.3,0.8,4.4,0.8c2.2,0,3.7-0.3,4.6-0.9
				c0.9-0.6,1.4-1.6,1.4-3c0-1.4-0.3-2.3-1-2.7c-0.7-0.4-2-0.6-4-0.6l-4.4-0.2c-0.9,0.6-1.5,1.2-1.8,1.7
				C45,245,44.9,245.6,44.9,246.4z M45.2,229.5c0,1.6,0.4,2.7,1.1,3.4c0.7,0.7,1.9,1,3.6,1c1.6,0,2.8-0.3,3.5-1
				c0.7-0.7,1.1-1.8,1.1-3.4c0-1.6-0.4-2.8-1.1-3.4c-0.7-0.7-1.9-1-3.5-1c-1.7,0-2.8,0.3-3.6,1C45.5,226.7,45.2,227.9,45.2,229.5z"
				/>
			<path class="st0" d="M70,225.2c-2.9,0-4.4,1-4.4,3.1c0,0.9,0.3,1.6,1,2c0.7,0.4,2.2,0.8,4.6,1.2c2.4,0.4,4.1,1,5.1,1.8
				c1,0.8,1.5,2.2,1.5,4.3c0,2.1-0.7,3.6-2,4.6c-1.3,1-3.3,1.5-5.9,1.5c-1.7,0-3.7-0.2-5.9-0.6l-1.2-0.2l0.2-2.6
				c3.1,0.5,5.4,0.7,7,0.7c1.6,0,2.8-0.2,3.6-0.8c0.8-0.5,1.2-1.3,1.2-2.5s-0.4-2-1.1-2.4c-0.7-0.4-2.2-0.8-4.6-1.2
				c-2.4-0.4-4.1-0.9-5.1-1.7c-1-0.7-1.5-2.1-1.5-4.1c0-2,0.7-3.4,2.1-4.4c1.4-0.9,3.1-1.4,5.2-1.4c1.6,0,3.7,0.2,6.2,0.6l1.1,0.2
				l-0.1,2.6C74.1,225.5,71.7,225.2,70,225.2z"/>
			<path class="st0" d="M93,225.6h-6.5v9.7c0,2.3,0.2,3.9,0.5,4.6c0.3,0.7,1.1,1.1,2.4,1.1l3.6-0.2l0.2,2.5
				c-1.8,0.3-3.2,0.4-4.1,0.4c-2.1,0-3.6-0.5-4.4-1.5c-0.8-1-1.2-3-1.2-5.9v-10.7h-2.9v-2.6h2.9v-6.2h3v6.2H93V225.6z"/>
			<path class="st0" d="M111.1,229.1v10.4c0.1,1,0.9,1.6,2.4,1.8l-0.1,2.4c-2.1,0-3.7-0.5-4.8-1.6c-2.4,1.1-4.9,1.6-7.3,1.6
				c-1.9,0-3.3-0.5-4.3-1.6c-1-1.1-1.5-2.6-1.5-4.5c0-2,0.5-3.4,1.5-4.4c1-0.9,2.6-1.5,4.7-1.7l6.4-0.6v-1.7c0-1.4-0.3-2.4-0.9-3
				c-0.6-0.6-1.4-0.9-2.4-0.9c-2.2,0-4.4,0.1-6.7,0.4l-1.3,0.1l-0.1-2.3c3-0.6,5.6-0.9,7.9-0.9c2.3,0,4,0.5,5,1.6
				C110.6,225.2,111.1,226.8,111.1,229.1z M98.6,237.3c0,2.5,1,3.7,3.1,3.7c1.8,0,3.7-0.3,5.4-0.9l0.9-0.3v-6.7l-6,0.6
				c-1.2,0.1-2.1,0.5-2.6,1.1C98.8,235.3,98.6,236.2,98.6,237.3z"/>
			<path class="st0" d="M123.5,225.2c-2.9,0-4.4,1-4.4,3.1c0,0.9,0.3,1.6,1,2c0.7,0.4,2.2,0.8,4.6,1.2c2.4,0.4,4.1,1,5.1,1.8
				c1,0.8,1.5,2.2,1.5,4.3c0,2.1-0.7,3.6-2,4.6c-1.3,1-3.3,1.5-5.9,1.5c-1.7,0-3.7-0.2-5.9-0.6l-1.2-0.2l0.2-2.6
				c3.1,0.5,5.4,0.7,7,0.7c1.6,0,2.8-0.2,3.6-0.8c0.8-0.5,1.2-1.3,1.2-2.5s-0.4-2-1.1-2.4c-0.7-0.4-2.2-0.8-4.6-1.2
				c-2.4-0.4-4.1-0.9-5.1-1.7c-1-0.7-1.5-2.1-1.5-4.1c0-2,0.7-3.4,2.1-4.4c1.4-0.9,3.1-1.4,5.2-1.4c1.6,0,3.7,0.2,6.2,0.6l1.1,0.2
				l-0.1,2.6C127.6,225.5,125.2,225.2,123.5,225.2z"/>
			<path class="st0" d="M139,243.2h-3v-29.1h3v10c2.2-1,4.2-1.5,6.3-1.5c2.7,0,4.5,0.7,5.5,2.2s1.4,4.1,1.4,7.8v10.7h-3v-10.6
				c0-2.8-0.3-4.7-0.8-5.8c-0.6-1-1.7-1.6-3.5-1.6c-1.7,0-3.4,0.3-5,0.9l-0.8,0.3V243.2z"/>
		</g>
	</g>
	<g>
		<path class="st1" d="M86,99H0V0h26c33.1,0,60,26.9,60,60V99z"/>
		<path class="st0" d="M86,185L86,185c-47.5,0-86-38.5-86-86v0h86V185z"/>
		<rect x="86" y="99" class="st2" width="78.4" height="86"/>
		<rect x="86" y="99" class="st3" width="18" height="86"/>
	</g>
</g>
</svg>
