<?xml version="1.0" encoding="utf-8"?>
<!-- Generator: Adobe Illustrator 19.0.1, SVG Export Plug-In . SVG Version: 6.00 Build 0)  -->
<svg version="1.1" id="Layer_1" xmlns="http://www.w3.org/2000/svg" xmlns:xlink="http://www.w3.org/1999/xlink" x="0px" y="0px"
	 viewBox="0 0 142 242.7" style="enable-background:new 0 0 142 242.7;" xml:space="preserve">
<style type="text/css">
	.st0{fill:#231F20;}
	.st1{fill:#E8478B;}
	.st2{fill:#40BEB0;}
	.st3{fill:#37A595;}
</style>
<g>
	<g>
		<path class="st0" d="M20.6,242.3h-3v-28.7h3v17l3.1-0.2l5.7-8.1h3.4l-6.5,9.2l6.8,10.8h-3.4l-6-9.3l-3.2,0.1V242.3z"/>
		<path class="st0" d="M36.7,217.8v-3.5h3v3.5H36.7z M36.7,242.3v-20h3v20H36.7z"/>
		<path class="st0" d="M54.3,222c2.7,0,4.6,0.8,5.7,2.3c1.1,1.5,1.6,4.2,1.6,8.1s-0.7,6.5-2,8.1c-1.3,1.6-3.8,2.3-7.4,2.3
			c-1.1,0-3-0.1-5.6-0.3l-1.1-0.1v-28.7h3v9.7C50.5,222.4,52.4,222,54.3,222z M52.1,240.1c2.6,0,4.3-0.6,5.2-1.8
			c0.8-1.2,1.3-3.2,1.3-6c0-2.8-0.3-4.8-1-5.9c-0.7-1.1-1.9-1.7-3.6-1.7c-1.5,0-3.1,0.3-4.8,0.9l-0.8,0.3v14.1
			C50.2,240,51.4,240.1,52.1,240.1z"/>
		<path class="st0" d="M80.6,228.4v10.2c0.1,1,0.9,1.6,2.3,1.8l-0.1,2.4c-2.1,0-3.7-0.5-4.8-1.6c-2.4,1.1-4.8,1.6-7.2,1.6
			c-1.8,0-3.2-0.5-4.2-1.6c-1-1-1.4-2.5-1.4-4.5c0-1.9,0.5-3.4,1.5-4.3c1-0.9,2.5-1.5,4.6-1.7l6.3-0.6v-1.7c0-1.4-0.3-2.3-0.9-2.9
			c-0.6-0.6-1.4-0.9-2.4-0.9c-2.1,0-4.3,0.1-6.6,0.4l-1.2,0.1l-0.1-2.3c2.9-0.6,5.5-0.9,7.8-0.9c2.3,0,3.9,0.5,4.9,1.6
			C80.1,224.6,80.6,226.2,80.6,228.4z M68.3,236.6c0,2.5,1,3.7,3,3.7c1.8,0,3.6-0.3,5.4-0.9l0.9-0.3v-6.6l-5.9,0.6
			c-1.2,0.1-2.1,0.5-2.6,1C68.6,234.6,68.3,235.4,68.3,236.6z"/>
		<path class="st0" d="M89.6,242.3h-3v-20h3v1.4c2.2-1.2,4.2-1.8,6.2-1.8c2.7,0,4.5,0.7,5.4,2.2c0.9,1.4,1.4,4,1.4,7.7v10.6h-3
			v-10.5c0-2.8-0.3-4.7-0.8-5.7c-0.5-1-1.7-1.5-3.5-1.5c-0.9,0-1.8,0.1-2.7,0.4c-0.9,0.3-1.7,0.5-2.2,0.7l-0.8,0.4V242.3z"/>
		<path class="st0" d="M122.1,228.4v10.2c0.1,1,0.9,1.6,2.3,1.8l-0.1,2.4c-2.1,0-3.7-0.5-4.8-1.6c-2.4,1.1-4.8,1.6-7.2,1.6
			c-1.8,0-3.2-0.5-4.2-1.6c-1-1-1.4-2.5-1.4-4.5c0-1.9,0.5-3.4,1.5-4.3c1-0.9,2.5-1.5,4.6-1.7l6.3-0.6v-1.7c0-1.4-0.3-2.3-0.9-2.9
			c-0.6-0.6-1.4-0.9-2.4-0.9c-2.1,0-4.3,0.1-6.6,0.4l-1.2,0.1l-0.1-2.3c2.9-0.6,5.5-0.9,7.8-0.9c2.3,0,3.9,0.5,4.9,1.6
			C121.6,224.6,122.1,226.2,122.1,228.4z M109.8,236.6c0,2.5,1,3.7,3,3.7c1.8,0,3.6-0.3,5.4-0.9l0.9-0.3v-6.6l-5.9,0.6
			c-1.2,0.1-2.1,0.5-2.6,1C110.1,234.6,109.8,235.4,109.8,236.6z"/>
	</g>
</g>
<g>
	<path class="st1" d="M2.7,69.1c24.5,0,47.6,6.3,67.7,17.2L142,0H0v171.1v0V69.1C0.9,69.1,1.8,69.1,2.7,69.1z"/>
	<path class="st2" d="M70.4,86.3L0,171.1v13.5h141.9C133.9,142.1,107.1,106.3,70.4,86.3z"/>
	<path class="st3" d="M70.4,86.3L0,171.1v13.5h25.3l68.3-82.4c0,0-4.5-3.8-11-8.3C77.7,90.3,70.4,86.3,70.4,86.3z"/>
	<path class="st0" d="M2.7,69.1c-0.9,0-1.8,0.1-2.7,0.1v101.9l70.4-84.7C50.3,75.3,27.2,69.1,2.7,69.1z"/>
</g>
</svg>
